<?xml version="1.0" encoding="UTF-8"?>
<!DOCTYPE svg PUBLIC "-//W3C//DTD SVG 1.1//EN" "http://www.w3.org/Graphics/SVG/1.1/DTD/svg11.dtd">
<svg xmlns="http://www.w3.org/2000/svg" version="1.1" width="256px" height="256px" style="shape-rendering:geometricPrecision; text-rendering:geometricPrecision; image-rendering:optimizeQuality; fill-rule:evenodd; clip-rule:evenodd" xmlns:xlink="http://www.w3.org/1999/xlink">
<g><path style="opacity:1" fill="#fefefe" d="M -0.5,-0.5 C 84.8333,-0.5 170.167,-0.5 255.5,-0.5C 255.5,84.8333 255.5,170.167 255.5,255.5C 170.167,255.5 84.8333,255.5 -0.5,255.5C -0.5,170.167 -0.5,84.8333 -0.5,-0.5 Z"/></g>
<g><path style="opacity:1" fill="#0cfe8b" d="M 221.5,43.5 C 221.539,44.7562 221.039,45.7562 220,46.5C 218.34,45.8336 216.506,45.8336 214.5,46.5C 212.603,43.4406 209.936,41.2739 206.5,40C 153.5,39.3333 100.5,39.3333 47.5,40C 44.6688,41.6657 42.3355,43.8324 40.5,46.5C 38.2816,45.4022 36.1149,45.4022 34,46.5C 33.5172,45.552 33.3505,44.552 33.5,43.5C 35.7556,37.4159 40.0889,33.5825 46.5,32C 100.167,31.3333 153.833,31.3333 207.5,32C 214.369,33.254 219.036,37.0873 221.5,43.5 Z"/></g>
<g><path style="opacity:1" fill="#fefefe" d="M 214.5,46.5 C 215.44,54.7788 215.773,63.1122 215.5,71.5C 156.833,71.5 98.1667,71.5 39.5,71.5C 39.2271,63.1122 39.5604,54.7788 40.5,46.5C 42.3355,43.8324 44.6688,41.6657 47.5,40C 100.5,39.3333 153.5,39.3333 206.5,40C 209.936,41.2739 212.603,43.4406 214.5,46.5 Z"/></g>
<g><path style="opacity:1" fill="#14fb9f" d="M 33.5,43.5 C 33.3505,44.552 33.5172,45.552 34,46.5C 36.1149,45.4022 38.2816,45.4022 40.5,46.5C 39.5604,54.7788 39.2271,63.1122 39.5,71.5C 98.1667,71.5 156.833,71.5 215.5,71.5C 215.773,63.1122 215.44,54.7788 214.5,46.5C 216.506,45.8336 218.34,45.8336 220,46.5C 221.039,45.7562 221.539,44.7562 221.5,43.5C 222.268,44.2625 222.768,45.2625 223,46.5C 223.5,59.8292 223.667,73.1625 223.5,86.5C 220.833,86.5 218.167,86.5 215.5,86.5C 215.5,84.1667 215.5,81.8333 215.5,79.5C 156.833,79.5 98.1667,79.5 39.5,79.5C 39.5,81.8333 39.5,84.1667 39.5,86.5C 36.8333,86.5 34.1667,86.5 31.5,86.5C 31.3334,73.1625 31.5001,59.8292 32,46.5C 32.2321,45.2625 32.7321,44.2625 33.5,43.5 Z"/></g>
<g><path style="opacity:1" fill="#2dfab1" d="M 118.5,57.5 C 118.67,58.8221 118.337,59.9887 117.5,61C 111.401,65.1611 107.067,63.9944 104.5,57.5C 106.397,56.1952 108.731,55.5286 111.5,55.5C 114.269,55.5286 116.603,56.1952 118.5,57.5 Z"/></g>
<g><path style="opacity:1" fill="#2dfab1" d="M 94.5,57.5 C 94.67,58.8221 94.3366,59.9887 93.5,61C 87.4005,65.1611 83.0672,63.9944 80.5,57.5C 82.3972,56.1952 84.7305,55.5286 87.5,55.5C 90.2695,55.5286 92.6028,56.1952 94.5,57.5 Z"/></g>
<g><path style="opacity:1" fill="#2dfab1" d="M 70.5,57.5 C 70.67,58.8221 70.3366,59.9887 69.5,61C 63.4005,65.1611 59.0672,63.9944 56.5,57.5C 58.3972,56.1952 60.7305,55.5286 63.5,55.5C 66.2695,55.5286 68.6028,56.1952 70.5,57.5 Z"/></g>
<g><path style="opacity:1" fill="#4bf5d6" d="M 118.5,57.5 C 116.603,56.1952 114.269,55.5286 111.5,55.5C 108.731,55.5286 106.397,56.1952 104.5,57.5C 103.102,54.6443 103.602,51.9777 106,49.5C 112.87,45.6879 117.37,47.5212 119.5,55C 119.472,56.0698 119.139,56.9032 118.5,57.5 Z"/></g>
<g><path style="opacity:1" fill="#4bf5d6" d="M 94.5,57.5 C 92.6028,56.1952 90.2695,55.5286 87.5,55.5C 84.7305,55.5286 82.3972,56.1952 80.5,57.5C 79.1017,54.6443 79.6017,51.9777 82,49.5C 88.8698,45.6879 93.3698,47.5212 95.5,55C 95.472,56.0698 95.1386,56.9032 94.5,57.5 Z"/></g>
<g><path style="opacity:1" fill="#4bf5d6" d="M 70.5,57.5 C 68.6028,56.1952 66.2695,55.5286 63.5,55.5C 60.7305,55.5286 58.3972,56.1952 56.5,57.5C 55.1017,54.6443 55.6017,51.9777 58,49.5C 64.8698,45.6879 69.3698,47.5212 71.5,55C 71.472,56.0698 71.1386,56.9032 70.5,57.5 Z"/></g>
<g><path style="opacity:1" fill="#fefefe" d="M 215.5,86.5 C 215.5,93.8333 215.5,101.167 215.5,108.5C 215.5,115.167 215.5,121.833 215.5,128.5C 215.5,135.833 215.5,143.167 215.5,150.5C 215.5,157.167 215.5,163.833 215.5,170.5C 215.5,177.833 215.5,185.167 215.5,192.5C 216.128,198.762 215.295,204.762 213,210.5C 211.269,212.617 209.102,214.117 206.5,215C 153.833,215.667 101.167,215.667 48.5,215C 44.3592,213.526 41.5259,210.693 40,206.5C 39.5008,201.845 39.3342,197.179 39.5,192.5C 39.5,185.167 39.5,177.833 39.5,170.5C 39.5,163.833 39.5,157.167 39.5,150.5C 39.5,143.167 39.5,135.833 39.5,128.5C 39.5,121.833 39.5,115.167 39.5,108.5C 39.5,101.167 39.5,93.8333 39.5,86.5C 39.5,84.1667 39.5,81.8333 39.5,79.5C 98.1667,79.5 156.833,79.5 215.5,79.5C 215.5,81.8333 215.5,84.1667 215.5,86.5 Z"/></g>
<g><path style="opacity:1" fill="#21f9b0" d="M 31.5,86.5 C 34.1667,86.5 36.8333,86.5 39.5,86.5C 39.5,93.8333 39.5,101.167 39.5,108.5C 36.8333,108.5 34.1667,108.5 31.5,108.5C 31.5,101.167 31.5,93.8333 31.5,86.5 Z"/></g>
<g><path style="opacity:1" fill="#21f9b0" d="M 215.5,86.5 C 218.167,86.5 220.833,86.5 223.5,86.5C 223.5,93.8333 223.5,101.167 223.5,108.5C 220.833,108.5 218.167,108.5 215.5,108.5C 215.5,101.167 215.5,93.8333 215.5,86.5 Z"/></g>
<g><path style="opacity:1" fill="#33f8b8" d="M 143.5,118.5 C 140.615,118.806 137.948,118.473 135.5,117.5C 137.696,110.078 140.196,102.745 143,95.5C 143.561,94.9781 144.228,94.6448 145,94.5C 147.111,95.4721 149.278,96.3054 151.5,97C 148.536,104.058 145.87,111.224 143.5,118.5 Z"/></g>
<g><path style="opacity:1" fill="#2af7bc" d="M 31.5,108.5 C 34.1667,108.5 36.8333,108.5 39.5,108.5C 39.5,115.167 39.5,121.833 39.5,128.5C 36.8333,128.5 34.1667,128.5 31.5,128.5C 31.5,121.833 31.5,115.167 31.5,108.5 Z"/></g>
<g><path style="opacity:1" fill="#2af7bc" d="M 215.5,108.5 C 218.167,108.5 220.833,108.5 223.5,108.5C 223.5,115.167 223.5,121.833 223.5,128.5C 220.833,128.5 218.167,128.5 215.5,128.5C 215.5,121.833 215.5,115.167 215.5,108.5 Z"/></g>
<g><path style="opacity:1" fill="#3bf7c4" d="M 74.5,138.5 C 70.8333,138.5 67.1667,138.5 63.5,138.5C 72.5048,129.33 82.0048,120.664 92,112.5C 94.0176,114.35 95.8509,116.35 97.5,118.5C 89.8137,125.189 82.147,131.856 74.5,138.5 Z"/></g>
<g><path style="opacity:1" fill="#3bf7c5" d="M 135.5,117.5 C 137.948,118.473 140.615,118.806 143.5,118.5C 141.168,125.162 138.835,131.828 136.5,138.5C 133.615,138.806 130.948,138.473 128.5,137.5C 130.313,130.564 132.646,123.897 135.5,117.5 Z"/></g>
<g><path style="opacity:1" fill="#35f6c9" d="M 31.5,128.5 C 34.1667,128.5 36.8333,128.5 39.5,128.5C 39.5,135.833 39.5,143.167 39.5,150.5C 36.8333,150.5 34.1667,150.5 31.5,150.5C 31.5,143.167 31.5,135.833 31.5,128.5 Z"/></g>
<g><path style="opacity:1" fill="#40f7c8" d="M 189.5,150.5 C 185.958,150.813 182.625,150.479 179.5,149.5C 181.812,147.854 183.812,145.854 185.5,143.5C 177.208,135.709 169.041,127.709 161,119.5C 161.401,116.899 162.901,114.899 165.5,113.5C 175.12,121.618 184.287,130.285 193,139.5C 194.337,144.084 193.171,147.751 189.5,150.5 Z"/></g>
<g><path style="opacity:1" fill="#35f6c9" d="M 215.5,128.5 C 218.167,128.5 220.833,128.5 223.5,128.5C 223.5,135.833 223.5,143.167 223.5,150.5C 220.833,150.5 218.167,150.5 215.5,150.5C 215.5,143.167 215.5,135.833 215.5,128.5 Z"/></g>
<g><path style="opacity:1" fill="#46f5d3" d="M 63.5,138.5 C 67.1667,138.5 70.8333,138.5 74.5,138.5C 73.1667,139.933 71.6667,141.267 70,142.5C 69.3333,143.167 69.3333,143.833 70,144.5C 79.3146,152.314 88.4813,160.314 97.5,168.5C 95.8509,170.65 94.0176,172.65 92,174.5C 81.8113,165.734 71.8113,156.734 62,147.5C 61.3333,144.833 61.3333,142.167 62,139.5C 62.3826,138.944 62.8826,138.611 63.5,138.5 Z"/></g>
<g><path style="opacity:1" fill="#44f5d1" d="M 128.5,137.5 C 130.948,138.473 133.615,138.806 136.5,138.5C 133.638,145.752 130.971,153.085 128.5,160.5C 127.153,161.171 125.986,161.171 125,160.5C 124.667,161.167 124.333,161.833 124,162.5C 122.896,161.606 121.73,160.606 120.5,159.5C 122.595,151.874 125.262,144.541 128.5,137.5 Z"/></g>
<g><path style="opacity:1" fill="#3ff4d5" d="M 31.5,150.5 C 34.1667,150.5 36.8333,150.5 39.5,150.5C 39.5,157.167 39.5,163.833 39.5,170.5C 36.8333,170.5 34.1667,170.5 31.5,170.5C 31.5,163.833 31.5,157.167 31.5,150.5 Z"/></g>
<g><path style="opacity:1" fill="#51f5d8" d="M 179.5,149.5 C 182.625,150.479 185.958,150.813 189.5,150.5C 182.154,158.846 174.154,166.513 165.5,173.5C 162.901,172.101 161.401,170.101 161,167.5C 167.035,161.297 173.202,155.297 179.5,149.5 Z"/></g>
<g><path style="opacity:1" fill="#3ff4d5" d="M 215.5,150.5 C 218.167,150.5 220.833,150.5 223.5,150.5C 223.5,157.167 223.5,163.833 223.5,170.5C 220.833,170.5 218.167,170.5 215.5,170.5C 215.5,163.833 215.5,157.167 215.5,150.5 Z"/></g>
<g><path style="opacity:1" fill="#49f2e2" d="M 31.5,170.5 C 34.1667,170.5 36.8333,170.5 39.5,170.5C 39.5,177.833 39.5,185.167 39.5,192.5C 36.8333,192.5 34.1667,192.5 31.5,192.5C 31.5,185.167 31.5,177.833 31.5,170.5 Z"/></g>
<g><path style="opacity:1" fill="#53f3e3" d="M 120.5,159.5 C 121.73,160.606 122.896,161.606 124,162.5C 124.333,161.833 124.667,161.167 125,160.5C 125.986,161.171 127.153,161.171 128.5,160.5C 124.44,171.843 120.274,183.177 116,194.5C 115.612,195.428 114.945,196.095 114,196.5C 111.587,195.976 109.42,194.976 107.5,193.5C 111.862,182.068 116.195,170.734 120.5,159.5 Z"/></g>
<g><path style="opacity:1" fill="#49f2e2" d="M 215.5,170.5 C 218.167,170.5 220.833,170.5 223.5,170.5C 223.5,177.833 223.5,185.167 223.5,192.5C 220.833,192.5 218.167,192.5 215.5,192.5C 215.5,185.167 215.5,177.833 215.5,170.5 Z"/></g>
<g><path style="opacity:1" fill="#5bf0f6" d="M 31.5,192.5 C 34.1667,192.5 36.8333,192.5 39.5,192.5C 39.3342,197.179 39.5008,201.845 40,206.5C 41.5259,210.693 44.3592,213.526 48.5,215C 101.167,215.667 153.833,215.667 206.5,215C 209.102,214.117 211.269,212.617 213,210.5C 215.295,204.762 216.128,198.762 215.5,192.5C 218.167,192.5 220.833,192.5 223.5,192.5C 223.817,198.909 223.317,205.243 222,211.5C 219.833,216.333 216.333,219.833 211.5,222C 183.38,223.15 155.213,223.65 127,223.5C 100.167,223.333 73.3333,223.167 46.5,223C 40.1587,221.325 35.6587,217.492 33,211.5C 31.6827,205.243 31.1827,198.909 31.5,192.5 Z"/></g>
</svg>
